<mxfile host="app.diagrams.net" modified="2021-11-01T08:19:01.777Z" agent="5.0 (X11; Linux x86_64) AppleWebKit/537.36 (KHTML, like Gecko) Chrome/95.0.4638.54 Safari/537.36" etag="t1l_TzHNwU4WtPcIXa-I" version="15.6.3" type="github">
  <diagram id="M3pgbx5bHdetkU3iyQLA" name="Page-1">
    <mxGraphModel dx="2077" dy="1238" grid="1" gridSize="10" guides="1" tooltips="1" connect="1" arrows="1" fold="1" page="1" pageScale="1" pageWidth="827" pageHeight="1169" math="0" shadow="0">
      <root>
        <mxCell id="0" />
        <mxCell id="1" parent="0" />
        <mxCell id="EqJAyEwIwQtf8HZJKhll-7" value="网关路由" style="rounded=1;whiteSpace=wrap;html=1;" vertex="1" parent="1">
          <mxGeometry x="70" y="360" width="690" height="60" as="geometry" />
        </mxCell>
        <mxCell id="EqJAyEwIwQtf8HZJKhll-13" value="user" style="swimlane;" vertex="1" parent="1">
          <mxGeometry x="74" y="60" width="680" height="260" as="geometry" />
        </mxCell>
        <mxCell id="EqJAyEwIwQtf8HZJKhll-18" value="" style="edgeStyle=orthogonalEdgeStyle;rounded=0;orthogonalLoop=1;jettySize=auto;html=1;" edge="1" parent="EqJAyEwIwQtf8HZJKhll-13" source="EqJAyEwIwQtf8HZJKhll-4" target="EqJAyEwIwQtf8HZJKhll-8">
          <mxGeometry relative="1" as="geometry" />
        </mxCell>
        <mxCell id="EqJAyEwIwQtf8HZJKhll-4" value="" style="fontColor=#0066CC;verticalAlign=top;verticalLabelPosition=bottom;labelPosition=center;align=center;html=1;outlineConnect=0;fillColor=#CCCCCC;strokeColor=#6881B3;gradientColor=none;gradientDirection=north;strokeWidth=2;shape=mxgraph.networks.users;" vertex="1" parent="EqJAyEwIwQtf8HZJKhll-13">
          <mxGeometry x="55" y="25" width="90" height="100" as="geometry" />
        </mxCell>
        <mxCell id="EqJAyEwIwQtf8HZJKhll-8" value="" style="fontColor=#0066CC;verticalAlign=top;verticalLabelPosition=bottom;labelPosition=center;align=center;html=1;outlineConnect=0;fillColor=#CCCCCC;strokeColor=#6881B3;gradientColor=none;gradientDirection=north;strokeWidth=2;shape=mxgraph.networks.virtual_pc;" vertex="1" parent="EqJAyEwIwQtf8HZJKhll-13">
          <mxGeometry x="42.5" y="160" width="115" height="85" as="geometry" />
        </mxCell>
        <mxCell id="EqJAyEwIwQtf8HZJKhll-17" value="" style="edgeStyle=orthogonalEdgeStyle;rounded=0;orthogonalLoop=1;jettySize=auto;html=1;" edge="1" parent="EqJAyEwIwQtf8HZJKhll-13" source="EqJAyEwIwQtf8HZJKhll-5" target="EqJAyEwIwQtf8HZJKhll-10">
          <mxGeometry relative="1" as="geometry" />
        </mxCell>
        <mxCell id="EqJAyEwIwQtf8HZJKhll-5" value="" style="fontColor=#0066CC;verticalAlign=top;verticalLabelPosition=bottom;labelPosition=center;align=center;html=1;outlineConnect=0;fillColor=#CCCCCC;strokeColor=#6881B3;gradientColor=none;gradientDirection=north;strokeWidth=2;shape=mxgraph.networks.users;" vertex="1" parent="EqJAyEwIwQtf8HZJKhll-13">
          <mxGeometry x="276" y="25" width="90" height="100" as="geometry" />
        </mxCell>
        <mxCell id="EqJAyEwIwQtf8HZJKhll-10" value="" style="fontColor=#0066CC;verticalAlign=top;verticalLabelPosition=bottom;labelPosition=center;align=center;html=1;outlineConnect=0;fillColor=#CCCCCC;strokeColor=#6881B3;gradientColor=none;gradientDirection=north;strokeWidth=2;shape=mxgraph.networks.laptop;" vertex="1" parent="EqJAyEwIwQtf8HZJKhll-13">
          <mxGeometry x="271" y="175" width="100" height="55" as="geometry" />
        </mxCell>
        <mxCell id="EqJAyEwIwQtf8HZJKhll-16" value="" style="edgeStyle=orthogonalEdgeStyle;rounded=0;orthogonalLoop=1;jettySize=auto;html=1;" edge="1" parent="EqJAyEwIwQtf8HZJKhll-13" source="EqJAyEwIwQtf8HZJKhll-6" target="EqJAyEwIwQtf8HZJKhll-11">
          <mxGeometry relative="1" as="geometry" />
        </mxCell>
        <mxCell id="EqJAyEwIwQtf8HZJKhll-6" value="" style="fontColor=#0066CC;verticalAlign=top;verticalLabelPosition=bottom;labelPosition=center;align=center;html=1;outlineConnect=0;fillColor=#CCCCCC;strokeColor=#6881B3;gradientColor=none;gradientDirection=north;strokeWidth=2;shape=mxgraph.networks.users;" vertex="1" parent="EqJAyEwIwQtf8HZJKhll-13">
          <mxGeometry x="471" y="25" width="90" height="100" as="geometry" />
        </mxCell>
        <mxCell id="EqJAyEwIwQtf8HZJKhll-11" value="" style="fontColor=#0066CC;verticalAlign=top;verticalLabelPosition=bottom;labelPosition=center;align=center;html=1;outlineConnect=0;fillColor=#CCCCCC;strokeColor=#6881B3;gradientColor=none;gradientDirection=north;strokeWidth=2;shape=mxgraph.networks.pc;" vertex="1" parent="EqJAyEwIwQtf8HZJKhll-13">
          <mxGeometry x="466" y="160" width="100" height="70" as="geometry" />
        </mxCell>
      </root>
    </mxGraphModel>
  </diagram>
</mxfile>
